<svg xmlns="http://www.w3.org/2000/svg" width="209.999" height="48.914" viewBox="0 0 209.999 48.914">
  <path d="M125.934,160.3V150.075l6.766-4.961v10.227Zm-8.11-15.188,6.767,4.962V160.3l-6.767-4.962Zm-8.111,4.962,6.767-4.962v10.227l-6.767,4.961Zm-8.109-4.962,6.766,4.961V160.3l-6.766-4.961Zm-8.111-6.931,6.767-4.962v10.226l-6.767,4.962Zm-8.11-4.962,6.767,4.962V148.41l-6.767-4.962Zm23.659-18.331L116.016,120l-7.371,5.4a.672.672,0,0,0,0,1.084l8.11,5.946a.671.671,0,0,0,.4.131.653.653,0,0,0,.185-.03.528.528,0,0,0,.051-.019c.022-.009.045-.014.067-.024a.593.593,0,0,0,.053-.038.355.355,0,0,0,.04-.021l7.713-5.654,6.975,5.113-7.372,5.4a.672.672,0,0,0,0,1.083l7.371,5.4-6.974,5.113-7.713-5.655c-.015-.011-.032-.016-.046-.026s-.029-.023-.047-.032a.284.284,0,0,0-.038-.014l-.048-.021c-.015-.005-.031-.007-.046-.011a.626.626,0,0,0-.082-.017c-.021,0-.043-.005-.065-.006s-.016,0-.024,0-.016,0-.025,0-.044,0-.066.006a.644.644,0,0,0-.081.017.468.468,0,0,0-.047.011c-.016.006-.032.015-.048.021s-.026.007-.037.013a.425.425,0,0,0-.045.031.532.532,0,0,0-.049.027l-7.713,5.655-6.974-5.113,7.371-5.4a.672.672,0,0,0,0-1.083l-8.111-5.946a.4.4,0,0,0-.046-.026.565.565,0,0,0-.046-.033c-.013-.006-.026-.007-.039-.013a.454.454,0,0,0-.046-.021.5.5,0,0,0-.049-.012.661.661,0,0,0-.08-.016.545.545,0,0,0-.064-.007h-.051a.527.527,0,0,0-.064.007.628.628,0,0,0-.08.016c-.016,0-.033.006-.05.012s-.031.014-.046.021-.026.007-.038.013-.031.022-.047.033a.491.491,0,0,0-.046.026l-7.714,5.654L85.847,131.9Zm7.438,6.438v9.241l-6.3-4.62Zm16.22,11.892v9.241l-6.3-4.62Zm-31.1,9.241v-9.241l6.3,4.621Zm32.416-10.738a.542.542,0,0,0-.02-.052.664.664,0,0,0-.045-.1c-.011-.019-.024-.036-.036-.054a.616.616,0,0,0-.067-.082.522.522,0,0,0-.051-.047c-.011-.009-.02-.021-.032-.029l-8.11-5.948a.672.672,0,0,0-.795,0l-7.041,5.163V120a.679.679,0,0,0-.024-.172c-.005-.018-.013-.035-.02-.053a.656.656,0,0,0-.045-.1.588.588,0,0,0-.036-.054.685.685,0,0,0-.067-.082.646.646,0,0,0-.051-.046c-.011-.009-.02-.021-.032-.03l-8.11-5.946a.669.669,0,0,0-.795,0L84.314,131.356c-.012.009-.021.021-.033.031s-.031.027-.046.043a.629.629,0,0,0-.071.087c-.011.016-.023.033-.033.05a.689.689,0,0,0-.048.109.424.424,0,0,0-.018.05.644.644,0,0,0-.024.172v11.892a.668.668,0,0,0,.274.541l8.11,5.947c.013.009.027.012.04.021s.033.027.053.037a.63.63,0,0,0,.067.025l.051.018a.606.606,0,0,0,.372,0,.543.543,0,0,0,.052-.019.593.593,0,0,0,.065-.024c.019-.009.034-.025.052-.036s.029-.012.042-.021l7.041-5.163v10.568a.669.669,0,0,0,.275.541l8.11,5.947a.441.441,0,0,0,.04.021.451.451,0,0,0,.053.037.59.59,0,0,0,.065.024c.018.007.035.015.053.02a.6.6,0,0,0,.37,0c.019-.005.036-.013.054-.02a.59.59,0,0,0,.065-.024.451.451,0,0,0,.053-.037.441.441,0,0,0,.04-.021l7.713-5.655,7.713,5.655a.442.442,0,0,0,.04.021.45.45,0,0,0,.053.037.66.66,0,0,0,.065.024c.018.007.035.015.054.02a.6.6,0,0,0,.37,0c.018-.005.035-.013.053-.02a.533.533,0,0,0,.065-.024.45.45,0,0,0,.053-.037.439.439,0,0,0,.04-.021l8.11-5.947a.669.669,0,0,0,.275-.541V131.9a.68.68,0,0,0-.024-.172m125.761,6.45a5.039,5.039,0,0,1,2.1,2.216,8.27,8.27,0,0,1,.748,3.727v10.487a.768.768,0,0,1-.767.768h-1.29a.768.768,0,0,1-.768-.768V144.233a4.518,4.518,0,0,0-1.052-3.172,3.759,3.759,0,0,0-2.888-1.134,4.621,4.621,0,0,0-2.264.55,3.939,3.939,0,0,0-1.562,1.6,5.716,5.716,0,0,0-.572,2.657v9.87a.769.769,0,0,1-.767.768h-1.291a.769.769,0,0,1-.768-.768v-16.1a.77.77,0,0,1,.768-.769H250.7a.77.77,0,0,1,.767.769V140a5.633,5.633,0,0,1,1.672-1.729,6.758,6.758,0,0,1,3.5-.824,6.522,6.522,0,0,1,3.142.731m-100.585,0a6.521,6.521,0,0,0-3.142-.731,6.758,6.758,0,0,0-3.5.824A5.643,5.643,0,0,0,150.881,140v-7.32a.768.768,0,0,0-.767-.767h-1.29a.769.769,0,0,0-.769.767v21.928a.77.77,0,0,0,.769.768h1.29a.769.769,0,0,0,.767-.768v-9.87a5.717,5.717,0,0,1,.572-2.657,3.936,3.936,0,0,1,1.563-1.6,4.617,4.617,0,0,1,2.263-.55,3.759,3.759,0,0,1,2.888,1.134,4.514,4.514,0,0,1,1.052,3.172v10.372a.768.768,0,0,0,.768.768h1.289a.768.768,0,0,0,.767-.768V144.118a8.247,8.247,0,0,0-.748-3.727,5.039,5.039,0,0,0-2.1-2.216m17.879.293a6.4,6.4,0,0,0-2.152-.822,11.107,11.107,0,0,0-1.955-.2,10.593,10.593,0,0,0-2.7.361,6.969,6.969,0,0,0-2.531,1.265,5.745,5.745,0,0,0-1.7,2.222.925.925,0,0,0,.039.838.523.523,0,0,0,.459.242h1.454a.957.957,0,0,0,.881-.34,5.322,5.322,0,0,1,1.25-1.275,4.784,4.784,0,0,1,2.976-.83,3.677,3.677,0,0,1,2.724.914,3.529,3.529,0,0,1,.9,2.573v5.072a4.228,4.228,0,0,1-2.191,4.083,5.33,5.33,0,0,1-2.661.617,4.59,4.59,0,0,1-2.609-.567,2.526,2.526,0,0,1-.981-2.536,2.913,2.913,0,0,1,2-2,13.186,13.186,0,0,1,3.974-.742.761.761,0,0,0,.728-.766v-.92a.778.778,0,0,0-.8-.769,14.2,14.2,0,0,0-6.439,1.6,4.608,4.608,0,0,0-2.2,2.96,4.748,4.748,0,0,0,.692,3.734,5.222,5.222,0,0,0,2.18,1.858,7.2,7.2,0,0,0,3.14.638c3.561,0,4.688-1.782,5.171-2.566v1.5a.768.768,0,0,0,.767.768h1.291a.769.769,0,0,0,.767-.768v-10.9a6.972,6.972,0,0,0-.725-3.36,4.858,4.858,0,0,0-1.739-1.881m32.308-.728H208.09a.769.769,0,0,0-.767.768v16.1a.769.769,0,0,0,.767.768h1.291a.768.768,0,0,0,.767-.768v-16.1a.768.768,0,0,0-.767-.768m-.646-6.126a1.966,1.966,0,0,0-1.4.553,1.821,1.821,0,0,0,0,2.675,2.042,2.042,0,0,0,2.794,0,1.819,1.819,0,0,0,0-2.675,1.964,1.964,0,0,0-1.4-.553m13.619,13.942-2.6-.638a6.066,6.066,0,0,1-2.251-.955,1.862,1.862,0,0,1-.7-1.531,2.137,2.137,0,0,1,1.036-1.806,5.277,5.277,0,0,1,4.526-.354,3.333,3.333,0,0,1,1.553,1.521,1.017,1.017,0,0,0,.977.577h1.113a.626.626,0,0,0,.546-.246.851.851,0,0,0,.064-.747,6.186,6.186,0,0,0-2.108-2.785,6.861,6.861,0,0,0-4.038-1.15,8.13,8.13,0,0,0-3.327.655,5.711,5.711,0,0,0-2.316,1.811,4.395,4.395,0,0,0-.85,2.661,4.326,4.326,0,0,0,1.14,3.058,6.974,6.974,0,0,0,3.559,1.79l2.917.686a4.053,4.053,0,0,1,1.927.91,1.993,1.993,0,0,1,.617,1.482,2.283,2.283,0,0,1-1.083,1.875,4.954,4.954,0,0,1-2.95.79,4.545,4.545,0,0,1-2.632-.7,3.258,3.258,0,0,1-1.166-1.5c-.134-.333-.4-.475-.885-.475l-1.409,0a.7.7,0,0,0-.432.318.744.744,0,0,0-.076.569,5.32,5.32,0,0,0,2.177,3.111,8.014,8.014,0,0,0,4.469,1.174,8.87,8.87,0,0,0,3.6-.69,5.9,5.9,0,0,0,2.425-1.89,4.55,4.55,0,0,0,.873-2.729,4.175,4.175,0,0,0-1.17-3.049,7.3,7.3,0,0,0-3.529-1.756m-31.136-8.1c-4.09,0-4.863,2.093-5.139,2.535V138.5a.771.771,0,0,0-.769-.768h-1.289a.768.768,0,0,0-.768.768v16.1a.768.768,0,0,0,.768.767h1.29a.768.768,0,0,0,.768-.767v-9.871a5.711,5.711,0,0,1,.572-2.657c.378-.7,1.091-2.14,4.626-2.14h.274a.55.55,0,0,0,.53-.547V138a.553.553,0,0,0-.589-.549Zm11.523,0c-4.09,0-4.864,2.093-5.14,2.535V138.5a.77.77,0,0,0-.768-.768h-1.289a.768.768,0,0,0-.768.768v16.1a.767.767,0,0,0,.768.767h1.29a.767.767,0,0,0,.767-.767v-9.871a5.721,5.721,0,0,1,.573-2.657c.379-.7,1.091-2.14,4.626-2.14h.274a.549.549,0,0,0,.53-.547V138a.554.554,0,0,0-.59-.549Zm34.738,15.854a4.65,4.65,0,0,1-2.985-.931,5.471,5.471,0,0,1-1.733-2.445,9.365,9.365,0,0,1-.563-3.283,9.464,9.464,0,0,1,.563-3.3,5.55,5.55,0,0,1,1.733-2.469,5.2,5.2,0,0,1,5.969,0,5.556,5.556,0,0,1,1.733,2.469,9.445,9.445,0,0,1,.564,3.3,9.346,9.346,0,0,1-.564,3.283,5.478,5.478,0,0,1-1.733,2.445,4.645,4.645,0,0,1-2.984.931m0,2.433a7.451,7.451,0,0,0,6.985-4.316,10.705,10.705,0,0,0,1-4.775,10.838,10.838,0,0,0-1-4.811,7.728,7.728,0,0,0-13.971,0,10.827,10.827,0,0,0-1,4.811,10.694,10.694,0,0,0,1,4.775,7.451,7.451,0,0,0,6.986,4.316m55.991-17.2a.769.769,0,0,0-.767-.768h-1.291a.769.769,0,0,0-.767.768v16.1a.768.768,0,0,0,.767.767H292.7a.768.768,0,0,0,.767-.767Zm-9.286-.039a6.413,6.413,0,0,0-2.153-.823,11.067,11.067,0,0,0-1.954-.2,10.583,10.583,0,0,0-2.7.362,6.983,6.983,0,0,0-2.53,1.264,5.745,5.745,0,0,0-1.7,2.222.922.922,0,0,0,.039.838.525.525,0,0,0,.46.243h1.452a.959.959,0,0,0,.883-.341,5.3,5.3,0,0,1,1.249-1.275,4.785,4.785,0,0,1,2.977-.829,3.678,3.678,0,0,1,2.724.913,3.533,3.533,0,0,1,.9,2.573v5.073a4.224,4.224,0,0,1-2.193,4.082,5.326,5.326,0,0,1-2.66.617,4.593,4.593,0,0,1-2.609-.566,2.529,2.529,0,0,1-.981-2.537,2.919,2.919,0,0,1,2-2,13.208,13.208,0,0,1,3.984-.742.76.76,0,0,0,.726-.765v-.921a.78.78,0,0,0-.8-.774h0a14.2,14.2,0,0,0-6.446,1.6,4.612,4.612,0,0,0-2.2,2.959,4.752,4.752,0,0,0,.692,3.736,5.221,5.221,0,0,0,2.18,1.857,7.2,7.2,0,0,0,3.14.638c3.561,0,4.688-1.782,5.171-2.564v1.5a.768.768,0,0,0,.767.767h1.291a.769.769,0,0,0,.767-.767v-10.9a6.948,6.948,0,0,0-.725-3.359,4.849,4.849,0,0,0-1.739-1.882m7.873-3.073a1.977,1.977,0,0,0,1.4-.553,1.822,1.822,0,0,0,0-2.675,2.041,2.041,0,0,0-2.795,0,1.821,1.821,0,0,0,0,2.675,1.972,1.972,0,0,0,1.4.553m-23.992,16.457a1.964,1.964,0,0,0-1.4.554,1.821,1.821,0,0,0,0,2.675,2.04,2.04,0,0,0,2.794,0,1.821,1.821,0,0,0,0-2.675,1.965,1.965,0,0,0-1.4-.554" transform="translate(-84.04 -113.386)" fill="#1402a1"></path>
</svg>